<svg id="my-svg" width="100%" xmlns="http://www.w3.org/2000/svg" xmlns:xlink="http://www.w3.org/1999/xlink" class="flowchart" style="max-width: 4290.7px; background-color: transparent;" viewBox="0 0 4290.703125 786" role="graphics-document document" aria-roledescription="flowchart-v2"><style>#my-svg{font-family:Inter,Helvetica,Arial,sans-serif;font-size:16px;fill:#172033;}@keyframes edge-animation-frame{from{stroke-dashoffset:0;}}@keyframes dash{to{stroke-dashoffset:0;}}#my-svg .edge-animation-slow{stroke-dasharray:9,5!important;stroke-dashoffset:900;animation:dash 50s linear infinite;stroke-linecap:round;}#my-svg .edge-animation-fast{stroke-dasharray:9,5!important;stroke-dashoffset:900;animation:dash 20s linear infinite;stroke-linecap:round;}#my-svg .error-icon{fill:#fff7e6;}#my-svg .error-text{fill:#000819;stroke:#000819;}#my-svg .edge-thickness-normal{stroke-width:1px;}#my-svg .edge-thickness-thick{stroke-width:3.5px;}#my-svg .edge-pattern-solid{stroke-dasharray:0;}#my-svg .edge-thickness-invisible{stroke-width:0;fill:none;}#my-svg .edge-pattern-dashed{stroke-dasharray:3;}#my-svg .edge-pattern-dotted{stroke-dasharray:2;}#my-svg .marker{fill:#52606d;stroke:#52606d;}#my-svg .marker.cross{stroke:#52606d;}#my-svg svg{font-family:Inter,Helvetica,Arial,sans-serif;font-size:16px;}#my-svg p{margin:0;}#my-svg .label{font-family:Inter,Helvetica,Arial,sans-serif;color:#172033;}#my-svg .cluster-label text{fill:#000819;}#my-svg .cluster-label span{color:#000819;}#my-svg .cluster-label span p{background-color:transparent;}#my-svg .label text,#my-svg span{fill:#172033;color:#172033;}#my-svg .node rect,#my-svg .node circle,#my-svg .node ellipse,#my-svg .node polygon,#my-svg .node path{fill:#eef4ff;stroke:#3b6ea8;stroke-width:1px;}#my-svg .rough-node .label text,#my-svg .node .label text,#my-svg .image-shape .label,#my-svg .icon-shape .label{text-anchor:middle;}#my-svg .node .katex path{fill:#000;stroke:#000;stroke-width:1px;}#my-svg .rough-node .label,#my-svg .node .label,#my-svg .image-shape .label,#my-svg .icon-shape .label{text-align:center;}#my-svg .node.clickable{cursor:pointer;}#my-svg .root .anchor path{fill:#52606d!important;stroke-width:0;stroke:#52606d;}#my-svg .arrowheadPath{fill:#0b0b0b;}#my-svg .edgePath .path{stroke:#52606d;stroke-width:1px;}#my-svg .flowchart-link{stroke:#52606d;fill:none;}#my-svg .edgeLabel{background-color:#ffffff;text-align:center;}#my-svg .edgeLabel p{background-color:#ffffff;}#my-svg .edgeLabel rect{opacity:0.5;background-color:#ffffff;fill:#ffffff;}#my-svg .labelBkg{background-color:rgba(255, 255, 255, 0.5);}#my-svg .cluster rect{fill:#f8fafc;stroke:#9aa8b8;stroke-width:1px;}#my-svg .cluster text{fill:#000819;}#my-svg .cluster span{color:#000819;}#my-svg div.mermaidTooltip{position:absolute;text-align:center;max-width:200px;padding:2px;font-family:Inter,Helvetica,Arial,sans-serif;font-size:12px;background:#fff7e6;border:1px solid hsl(40.8, 60%, 85.0980392157%);border-radius:2px;pointer-events:none;z-index:100;}#my-svg .flowchartTitleText{text-anchor:middle;font-size:18px;fill:#172033;}#my-svg rect.text{fill:none;stroke-width:0;}#my-svg .icon-shape,#my-svg .image-shape{background-color:#ffffff;text-align:center;}#my-svg .icon-shape p,#my-svg .image-shape p{background-color:#ffffff;padding:2px;}#my-svg .icon-shape .label rect,#my-svg .image-shape .label rect{opacity:0.5;background-color:#ffffff;fill:#ffffff;}#my-svg .label-icon{display:inline-block;height:1em;overflow:visible;vertical-align:-0.125em;}#my-svg .node .label-icon path{fill:currentColor;stroke:revert;stroke-width:revert;}#my-svg .node .neo-node{stroke:#3b6ea8;}#my-svg [data-look="neo"].node rect,#my-svg [data-look="neo"].cluster rect,#my-svg [data-look="neo"].node polygon{stroke:url(#my-svg-gradient);filter:drop-shadow( 1px 2px 2px rgba(185,185,185,1));}#my-svg [data-look="neo"].node path{stroke:url(#my-svg-gradient);stroke-width:1px;}#my-svg [data-look="neo"].node .outer-path{filter:drop-shadow( 1px 2px 2px rgba(185,185,185,1));}#my-svg [data-look="neo"].node .neo-line path{stroke:#3b6ea8;filter:none;}#my-svg [data-look="neo"].node circle{stroke:url(#my-svg-gradient);filter:drop-shadow( 1px 2px 2px rgba(185,185,185,1));}#my-svg [data-look="neo"].node circle .state-start{fill:#000000;}#my-svg [data-look="neo"].icon-shape .icon{fill:url(#my-svg-gradient);filter:drop-shadow( 1px 2px 2px rgba(185,185,185,1));}#my-svg [data-look="neo"].icon-shape .icon-neo path{stroke:url(#my-svg-gradient);filter:drop-shadow( 1px 2px 2px rgba(185,185,185,1));}#my-svg :root{--mermaid-font-family:"trebuchet ms",verdana,arial,sans-serif;}</style><g><marker id="my-svg_flowchart-v2-pointEnd" class="marker flowchart-v2" viewBox="0 0 10 10" refX="5" refY="5" markerUnits="userSpaceOnUse" markerWidth="8" markerHeight="8" orient="auto"><path d="M 0 0 L 10 5 L 0 10 z" class="arrowMarkerPath" style="stroke-width: 1; stroke-dasharray: 1, 0;"/></marker><marker id="my-svg_flowchart-v2-pointStart" class="marker flowchart-v2" viewBox="0 0 10 10" refX="4.5" refY="5" markerUnits="userSpaceOnUse" markerWidth="8" markerHeight="8" orient="auto"><path d="M 0 5 L 10 10 L 10 0 z" class="arrowMarkerPath" style="stroke-width: 1; stroke-dasharray: 1, 0;"/></marker><marker id="my-svg_flowchart-v2-pointEnd-margin" class="marker flowchart-v2" viewBox="0 0 11.5 14" refX="11.5" refY="7" markerUnits="userSpaceOnUse" markerWidth="10.5" markerHeight="14" orient="auto"><path d="M 0 0 L 11.5 7 L 0 14 z" class="arrowMarkerPath" style="stroke-width: 0; stroke-dasharray: 1, 0;"/></marker><marker id="my-svg_flowchart-v2-pointStart-margin" class="marker flowchart-v2" viewBox="0 0 11.5 14" refX="1" refY="7" markerUnits="userSpaceOnUse" markerWidth="11.5" markerHeight="14" orient="auto"><polygon points="0,7 11.5,14 11.5,0" class="arrowMarkerPath" style="stroke-width: 0; stroke-dasharray: 1, 0;"/></marker><marker id="my-svg_flowchart-v2-circleEnd" class="marker flowchart-v2" viewBox="0 0 10 10" refX="11" refY="5" markerUnits="userSpaceOnUse" markerWidth="11" markerHeight="11" orient="auto"><circle cx="5" cy="5" r="5" class="arrowMarkerPath" style="stroke-width: 1; stroke-dasharray: 1, 0;"/></marker><marker id="my-svg_flowchart-v2-circleStart" class="marker flowchart-v2" viewBox="0 0 10 10" refX="-1" refY="5" markerUnits="userSpaceOnUse" markerWidth="11" markerHeight="11" orient="auto"><circle cx="5" cy="5" r="5" class="arrowMarkerPath" style="stroke-width: 1; stroke-dasharray: 1, 0;"/></marker><marker id="my-svg_flowchart-v2-circleEnd-margin" class="marker flowchart-v2" viewBox="0 0 10 10" refY="5" refX="12.25" markerUnits="userSpaceOnUse" markerWidth="14" markerHeight="14" orient="auto"><circle cx="5" cy="5" r="5" class="arrowMarkerPath" style="stroke-width: 0; stroke-dasharray: 1, 0;"/></marker><marker id="my-svg_flowchart-v2-circleStart-margin" class="marker flowchart-v2" viewBox="0 0 10 10" refX="-2" refY="5" markerUnits="userSpaceOnUse" markerWidth="14" markerHeight="14" orient="auto"><circle cx="5" cy="5" r="5" class="arrowMarkerPath" style="stroke-width: 0; stroke-dasharray: 1, 0;"/></marker><marker id="my-svg_flowchart-v2-crossEnd" class="marker cross flowchart-v2" viewBox="0 0 11 11" refX="12" refY="5.2" markerUnits="userSpaceOnUse" markerWidth="11" markerHeight="11" orient="auto"><path d="M 1,1 l 9,9 M 10,1 l -9,9" class="arrowMarkerPath" style="stroke-width: 2; stroke-dasharray: 1, 0;"/></marker><marker id="my-svg_flowchart-v2-crossStart" class="marker cross flowchart-v2" viewBox="0 0 11 11" refX="-1" refY="5.2" markerUnits="userSpaceOnUse" markerWidth="11" markerHeight="11" orient="auto"><path d="M 1,1 l 9,9 M 10,1 l -9,9" class="arrowMarkerPath" style="stroke-width: 2; stroke-dasharray: 1, 0;"/></marker><marker id="my-svg_flowchart-v2-crossEnd-margin" class="marker cross flowchart-v2" viewBox="0 0 15 15" refX="17.7" refY="7.5" markerUnits="userSpaceOnUse" markerWidth="12" markerHeight="12" orient="auto"><path d="M 1,1 L 14,14 M 1,14 L 14,1" class="arrowMarkerPath" style="stroke-width: 2.5;"/></marker><marker id="my-svg_flowchart-v2-crossStart-margin" class="marker cross flowchart-v2" viewBox="0 0 15 15" refX="-3.5" refY="7.5" markerUnits="userSpaceOnUse" markerWidth="12" markerHeight="12" orient="auto"><path d="M 1,1 L 14,14 M 1,14 L 14,1" class="arrowMarkerPath" style="stroke-width: 2.5; stroke-dasharray: 1, 0;"/></marker><g class="root"><g class="clusters"><g class="cluster" id="my-svg-S2" data-look="classic"><rect style="" x="3445.609375" y="515" width="837.09375" height="148"/><g class="cluster-label" transform="translate(3749.875, 515)"><foreignObject width="228.5625" height="24"><div xmlns="http://www.w3.org/1999/xhtml" style="display: table-cell; white-space: nowrap; line-height: 1.5;"><span class="nodeLabel"><p>Stage 2: Long-Term Forecasting</p></span></div></foreignObject></g></g><g class="cluster" id="my-svg-S15" data-look="classic"><rect style="" x="2501.734375" y="503" width="893.875" height="176"/><g class="cluster-label" transform="translate(2847.71875, 503)"><foreignObject width="201.90625" height="24"><div xmlns="http://www.w3.org/1999/xhtml" style="display: table-cell; white-space: nowrap; line-height: 1.5;"><span class="nodeLabel"><p>Stage 1.5: Structured Bridge</p></span></div></foreignObject></g></g><g class="cluster" id="my-svg-S1" data-look="classic"><rect style="" x="1284.421875" y="8" width="1497.171875" height="475"/><g class="cluster-label" transform="translate(1898.71875, 8)"><foreignObject width="268.578125" height="24"><div xmlns="http://www.w3.org/1999/xhtml" style="display: table-cell; white-space: nowrap; line-height: 1.5;"><span class="nodeLabel"><p>Stage 1: Pass-Level Rainfall Retrieval</p></span></div></foreignObject></g></g><g class="cluster" id="my-svg-M0" data-look="classic"><rect style="" x="368" y="630" width="1221.203125" height="148"/><g class="cluster-label" transform="translate(853.4921875, 630)"><foreignObject width="250.21875" height="24"><div xmlns="http://www.w3.org/1999/xhtml" style="display: table-cell; white-space: nowrap; line-height: 1.5;"><span class="nodeLabel"><p>LoRA-MoE Visual Weather Adapter</p></span></div></foreignObject></g></g><g class="cluster" id="my-svg-S0" data-look="classic"><rect style="" x="8" y="8" width="310" height="758"/><g class="cluster-label" transform="translate(114.53125, 8)"><foreignObject width="96.9375" height="24"><div xmlns="http://www.w3.org/1999/xhtml" style="display: table-cell; white-space: nowrap; line-height: 1.5;"><span class="nodeLabel"><p>Data Sources</p></span></div></foreignObject></g></g></g><g class="edgePaths"><path d="M653,704L657.167,704C661.333,704,669.667,704,677.333,704C685,704,692,704,695.5,704L699,704" id="my-svg-L_VE_PRJ_0" class="edge-thickness-normal edge-pattern-solid edge-thickness-normal edge-pattern-solid flowchart-link" style=";" data-edge="true" data-et="edge" data-id="L_VE_PRJ_0" data-points="W3sieCI6NjUzLCJ5Ijo3MDR9LHsieCI6Njc4LCJ5Ijo3MDR9LHsieCI6NzAzLCJ5Ijo3MDR9XQ==" data-look="classic" marker-end="url(#my-svg_flowchart-v2-pointEnd)"/><path d="M963,704L967.167,704C971.333,704,979.667,704,987.333,704C995,704,1002,704,1005.5,704L1009,704" id="my-svg-L_PRJ_LLM_0" class="edge-thickness-normal edge-pattern-solid edge-thickness-normal edge-pattern-solid flowchart-link" style=";" data-edge="true" data-et="edge" data-id="L_PRJ_LLM_0" data-points="W3sieCI6OTYzLCJ5Ijo3MDR9LHsieCI6OTg4LCJ5Ijo3MDR9LHsieCI6MTAxMywieSI6NzA0fV0=" data-look="classic" marker-end="url(#my-svg_flowchart-v2-pointEnd)"/><path d="M1234.422,704L1238.589,704C1242.755,704,1251.089,704,1259.422,704C1267.755,704,1276.089,704,1283.755,704C1291.422,704,1298.422,704,1301.922,704L1305.422,704" id="my-svg-L_LLM_VLAB_0" class="edge-thickness-normal edge-pattern-solid edge-thickness-normal edge-pattern-solid flowchart-link" style=";" data-edge="true" data-et="edge" data-id="L_LLM_VLAB_0" data-points="W3sieCI6MTIzNC40MjE4NzUsInkiOjcwNH0seyJ4IjoxMjU5LjQyMTg3NSwieSI6NzA0fSx7IngiOjEyODQuNDIxODc1LCJ5Ijo3MDR9LHsieCI6MTMwOS40MjE4NzUsInkiOjcwNH1d" data-look="classic" marker-end="url(#my-svg_flowchart-v2-pointEnd)"/><path d="M1557.758,82L1562.999,82C1568.24,82,1578.721,82,1588.129,82C1597.536,82,1605.87,82,1630.62,117.59C1655.37,153.179,1696.537,224.358,1717.121,259.948L1737.704,295.537" id="my-svg-L_PASS_ALIGN_0" class="edge-thickness-normal edge-pattern-solid edge-thickness-normal edge-pattern-solid flowchart-link" style=";" data-edge="true" data-et="edge" data-id="L_PASS_ALIGN_0" data-points="W3sieCI6MTU1Ny43NTc4MTI1LCJ5Ijo4Mn0seyJ4IjoxNTg5LjIwMzEyNSwieSI6ODJ9LHsieCI6MTYxNC4yMDMxMjUsInkiOjgyfSx7IngiOjE3MzkuNzA2ODU2MzQzMjgzNiwieSI6Mjk5fV0=" data-look="classic" marker-end="url(#my-svg_flowchart-v2-pointEnd)"/><path d="M1899.203,350L1903.37,350C1907.536,350,1915.87,350,1923.536,350C1931.203,350,1938.203,350,1941.703,350L1945.203,350" id="my-svg-L_ALIGN_DBLD_0" class="edge-thickness-normal edge-pattern-solid edge-thickness-normal edge-pattern-solid flowchart-link" style=";" data-edge="true" data-et="edge" data-id="L_ALIGN_DBLD_0" data-points="W3sieCI6MTg5OS4yMDMxMjUsInkiOjM1MH0seyJ4IjoxOTI0LjIwMzEyNSwieSI6MzUwfSx7IngiOjE5NDkuMjAzMTI1LCJ5IjozNTB9XQ==" data-look="classic" marker-end="url(#my-svg_flowchart-v2-pointEnd)"/><path d="M2141.734,350L2145.901,350C2150.068,350,2158.401,350,2166.068,350C2173.734,350,2180.734,350,2184.234,350L2187.734,350" id="my-svg-L_DBLD_RET_0" class="edge-thickness-normal edge-pattern-solid edge-thickness-normal edge-pattern-solid flowchart-link" style=";" data-edge="true" data-et="edge" data-id="L_DBLD_RET_0" data-points="W3sieCI6MjE0MS43MzQzNzUsInkiOjM1MH0seyJ4IjoyMTY2LjczNDM3NSwieSI6MzUwfSx7IngiOjIxOTEuNzM0Mzc1LCJ5IjozNTB9XQ==" data-look="classic" marker-end="url(#my-svg_flowchart-v2-pointEnd)"/><path d="M2451.734,350L2455.901,350C2460.068,350,2468.401,350,2476.734,350C2485.068,350,2493.401,350,2501.068,350C2508.734,350,2515.734,350,2519.234,350L2522.734,350" id="my-svg-L_RET_YPASS_0" class="edge-thickness-normal edge-pattern-solid edge-thickness-normal edge-pattern-solid flowchart-link" style=";" data-edge="true" data-et="edge" data-id="L_RET_YPASS_0" data-points="W3sieCI6MjQ1MS43MzQzNzUsInkiOjM1MH0seyJ4IjoyNDc2LjczNDM3NSwieSI6MzUwfSx7IngiOjI1MDEuNzM0Mzc1LCJ5IjozNTB9LHsieCI6MjUyNi43MzQzNzUsInkiOjM1MH1d" data-look="classic" marker-end="url(#my-svg_flowchart-v2-pointEnd)"/><path d="M2729.477,599L2738.163,599C2746.849,599,2764.221,599,2777.074,599C2789.927,599,2798.26,599,2805.929,598.749C2813.597,598.498,2820.601,597.996,2824.102,597.745L2827.604,597.494" id="my-svg-L_BUCKET_AGG_0" class="edge-thickness-normal edge-pattern-solid edge-thickness-normal edge-pattern-solid flowchart-link" style=";" data-edge="true" data-et="edge" data-id="L_BUCKET_AGG_0" data-points="W3sieCI6MjcyOS40NzY1NjI1LCJ5Ijo1OTl9LHsieCI6Mjc4MS41OTM3NSwieSI6NTk5fSx7IngiOjI4MDYuNTkzNzUsInkiOjU5OX0seyJ4IjoyODMxLjU5Mzc1LCJ5Ijo1OTcuMjA3OTg1NjYzODg1M31d" data-look="classic" marker-end="url(#my-svg_flowchart-v2-pointEnd)"/><path d="M3060.609,589L3064.776,589C3068.943,589,3077.276,589,3084.943,589C3092.609,589,3099.609,589,3103.109,589L3106.609,589" id="my-svg-L_AGG_TABLE_0" class="edge-thickness-normal edge-pattern-solid edge-thickness-normal edge-pattern-solid flowchart-link" style=";" data-edge="true" data-et="edge" data-id="L_AGG_TABLE_0" data-points="W3sieCI6MzA2MC42MDkzNzUsInkiOjU4OX0seyJ4IjozMDg1LjYwOTM3NSwieSI6NTg5fSx7IngiOjMxMTAuNjA5Mzc1LCJ5Ijo1ODl9XQ==" data-look="classic" marker-end="url(#my-svg_flowchart-v2-pointEnd)"/><path d="M3678.516,589L3682.682,589C3686.849,589,3695.182,589,3702.849,589C3710.516,589,3717.516,589,3721.016,589L3724.516,589" id="my-svg-L_PATCH_GPT_0" class="edge-thickness-normal edge-pattern-solid edge-thickness-normal edge-pattern-solid flowchart-link" style=";" data-edge="true" data-et="edge" data-id="L_PATCH_GPT_0" data-points="W3sieCI6MzY3OC41MTU2MjUsInkiOjU4OX0seyJ4IjozNzAzLjUxNTYyNSwieSI6NTg5fSx7IngiOjM3MjguNTE1NjI1LCJ5Ijo1ODl9XQ==" data-look="classic" marker-end="url(#my-svg_flowchart-v2-pointEnd)"/><path d="M3988.516,589L3992.682,589C3996.849,589,4005.182,589,4012.849,589C4020.516,589,4027.516,589,4031.016,589L4034.516,589" id="my-svg-L_GPT_OUT_0" class="edge-thickness-normal edge-pattern-solid edge-thickness-normal edge-pattern-solid flowchart-link" style=";" data-edge="true" data-et="edge" data-id="L_GPT_OUT_0" data-points="W3sieCI6Mzk4OC41MTU2MjUsInkiOjU4OX0seyJ4Ijo0MDEzLjUxNTYyNSwieSI6NTg5fSx7IngiOjQwMzguNTE1NjI1LCJ5Ijo1ODl9XQ==" data-look="classic" marker-end="url(#my-svg_flowchart-v2-pointEnd)"/><path d="M271.68,82L279.4,82C287.12,82,302.56,82,314.447,82C326.333,82,334.667,82,343,82C351.333,82,359.667,82,389.667,82C419.667,82,471.333,82,523,82C574.667,82,626.333,82,678,82C729.667,82,781.333,82,833,82C884.667,82,936.333,82,984.785,82C1033.237,82,1078.474,82,1123.711,82C1168.948,82,1214.185,82,1240.97,82C1267.755,82,1276.089,82,1284.829,82C1293.57,82,1302.719,82,1307.293,82L1311.867,82" id="my-svg-L_PHY_PASS_0" class="edge-thickness-normal edge-pattern-solid edge-thickness-normal edge-pattern-solid flowchart-link" style=";" data-edge="true" data-et="edge" data-id="L_PHY_PASS_0" data-points="W3sieCI6MjcxLjY3OTY4NzUsInkiOjgyfSx7IngiOjMxOCwieSI6ODJ9LHsieCI6MzQzLCJ5Ijo4Mn0seyJ4IjozNjgsInkiOjgyfSx7IngiOjUyMywieSI6ODJ9LHsieCI6Njc4LCJ5Ijo4Mn0seyJ4Ijo4MzMsInkiOjgyfSx7IngiOjk4OCwieSI6ODJ9LHsieCI6MTEyMy43MTA5Mzc1LCJ5Ijo4Mn0seyJ4IjoxMjU5LjQyMTg3NSwieSI6ODJ9LHsieCI6MTI4NC40MjE4NzUsInkiOjgyfSx7IngiOjEzMTUuODY3MTg3NSwieSI6ODJ9XQ==" data-look="classic" marker-end="url(#my-svg_flowchart-v2-pointEnd)"/><path d="M281.938,210L287.948,210C293.958,210,305.979,210,316.156,210C326.333,210,334.667,210,343,210C351.333,210,359.667,210,389.667,210C419.667,210,471.333,210,523,210C574.667,210,626.333,210,678,210C729.667,210,781.333,210,833,210C884.667,210,936.333,210,984.785,210C1033.237,210,1078.474,210,1123.711,210C1168.948,210,1214.185,210,1240.97,210C1267.755,210,1276.089,210,1305.654,210C1335.219,210,1386.016,210,1436.813,210C1487.609,210,1538.406,210,1567.971,210C1597.536,210,1605.87,210,1625.964,224.386C1646.059,238.773,1677.915,267.546,1693.843,281.932L1709.77,296.319" id="my-svg-L_POS_ALIGN_0" class="edge-thickness-normal edge-pattern-solid edge-thickness-normal edge-pattern-solid flowchart-link" style=";" data-edge="true" data-et="edge" data-id="L_POS_ALIGN_0" data-points="W3sieCI6MjgxLjkzNzUsInkiOjIxMH0seyJ4IjozMTgsInkiOjIxMH0seyJ4IjozNDMsInkiOjIxMH0seyJ4IjozNjgsInkiOjIxMH0seyJ4Ijo1MjMsInkiOjIxMH0seyJ4Ijo2NzgsInkiOjIxMH0seyJ4Ijo4MzMsInkiOjIxMH0seyJ4Ijo5ODgsInkiOjIxMH0seyJ4IjoxMTIzLjcxMDkzNzUsInkiOjIxMH0seyJ4IjoxMjU5LjQyMTg3NSwieSI6MjEwfSx7IngiOjEyODQuNDIxODc1LCJ5IjoyMTB9LHsieCI6MTQzNi44MTI1LCJ5IjoyMTB9LHsieCI6MTU4OS4yMDMxMjUsInkiOjIxMH0seyJ4IjoxNjE0LjIwMzEyNSwieSI6MjEwfSx7IngiOjE3MTIuNzM4ODM5Mjg1NzE0MiwieSI6Mjk5fV0=" data-look="classic" marker-end="url(#my-svg_flowchart-v2-pointEnd)"/><path d="M293,350L297.167,350C301.333,350,309.667,350,318,350C326.333,350,334.667,350,343,350C351.333,350,359.667,350,389.667,350C419.667,350,471.333,350,523,350C574.667,350,626.333,350,678,350C729.667,350,781.333,350,833,350C884.667,350,936.333,350,984.785,350C1033.237,350,1078.474,350,1123.711,350C1168.948,350,1214.185,350,1240.97,350C1267.755,350,1276.089,350,1305.654,350C1335.219,350,1386.016,350,1436.813,350C1487.609,350,1538.406,350,1567.971,350C1597.536,350,1605.87,350,1613.536,350C1621.203,350,1628.203,350,1631.703,350L1635.203,350" id="my-svg-L_GW_ALIGN_0" class="edge-thickness-normal edge-pattern-solid edge-thickness-normal edge-pattern-solid flowchart-link" style=";" data-edge="true" data-et="edge" data-id="L_GW_ALIGN_0" data-points="W3sieCI6MjkzLCJ5IjozNTB9LHsieCI6MzE4LCJ5IjozNTB9LHsieCI6MzQzLCJ5IjozNTB9LHsieCI6MzY4LCJ5IjozNTB9LHsieCI6NTIzLCJ5IjozNTB9LHsieCI6Njc4LCJ5IjozNTB9LHsieCI6ODMzLCJ5IjozNTB9LHsieCI6OTg4LCJ5IjozNTB9LHsieCI6MTEyMy43MTA5Mzc1LCJ5IjozNTB9LHsieCI6MTI1OS40MjE4NzUsInkiOjM1MH0seyJ4IjoxMjg0LjQyMTg3NSwieSI6MzUwfSx7IngiOjE0MzYuODEyNSwieSI6MzUwfSx7IngiOjE1ODkuMjAzMTI1LCJ5IjozNTB9LHsieCI6MTYxNC4yMDMxMjUsInkiOjM1MH0seyJ4IjoxNjM5LjIwMzEyNSwieSI6MzUwfV0=" data-look="classic" marker-end="url(#my-svg_flowchart-v2-pointEnd)"/><path d="M228.707,483L243.589,474.167C258.471,465.333,288.236,447.667,307.284,438.833C326.333,430,334.667,430,343,430C351.333,430,359.667,430,389.667,430C419.667,430,471.333,430,523,430C574.667,430,626.333,430,678,430C729.667,430,781.333,430,833,430C884.667,430,936.333,430,984.785,430C1033.237,430,1078.474,430,1123.711,430C1168.948,430,1214.185,430,1240.97,430C1267.755,430,1276.089,430,1305.654,430C1335.219,430,1386.016,430,1436.813,430C1487.609,430,1538.406,430,1567.971,430C1597.536,430,1605.87,430,1618.809,425.472C1631.747,420.945,1649.292,411.89,1658.064,407.362L1666.836,402.835" id="my-svg-L_WS_ALIGN_0" class="edge-thickness-normal edge-pattern-solid edge-thickness-normal edge-pattern-solid flowchart-link" style=";" data-edge="true" data-et="edge" data-id="L_WS_ALIGN_0" data-points="W3sieCI6MjI4LjcwNjUyMTczOTEzMDQ0LCJ5Ijo0ODN9LHsieCI6MzE4LCJ5Ijo0MzB9LHsieCI6MzQzLCJ5Ijo0MzB9LHsieCI6MzY4LCJ5Ijo0MzB9LHsieCI6NTIzLCJ5Ijo0MzB9LHsieCI6Njc4LCJ5Ijo0MzB9LHsieCI6ODMzLCJ5Ijo0MzB9LHsieCI6OTg4LCJ5Ijo0MzB9LHsieCI6MTEyMy43MTA5Mzc1LCJ5Ijo0MzB9LHsieCI6MTI1OS40MjE4NzUsInkiOjQzMH0seyJ4IjoxMjg0LjQyMTg3NSwieSI6NDMwfSx7IngiOjE0MzYuODEyNSwieSI6NDMwfSx7IngiOjE1ODkuMjAzMTI1LCJ5Ijo0MzB9LHsieCI6MTYxNC4yMDMxMjUsInkiOjQzMH0seyJ4IjoxNjcwLjM5MDYyNSwieSI6NDAxfV0=" data-look="classic" marker-end="url(#my-svg_flowchart-v2-pointEnd)"/><path d="M249.469,704L260.891,704C272.313,704,295.156,704,310.745,704C326.333,704,334.667,704,343,704C351.333,704,359.667,704,367.333,704C375,704,382,704,385.5,704L389,704" id="my-svg-L_IMG_VE_0" class="edge-thickness-normal edge-pattern-solid edge-thickness-normal edge-pattern-solid flowchart-link" style=";" data-edge="true" data-et="edge" data-id="L_IMG_VE_0" data-points="W3sieCI6MjQ5LjQ2ODc1LCJ5Ijo3MDR9LHsieCI6MzE4LCJ5Ijo3MDR9LHsieCI6MzQzLCJ5Ijo3MDR9LHsieCI6MzY4LCJ5Ijo3MDR9LHsieCI6MzkzLCJ5Ijo3MDR9XQ==" data-look="classic" marker-end="url(#my-svg_flowchart-v2-pointEnd)"/><path d="M1564.203,704L1568.37,704C1572.536,704,1580.87,704,1589.203,661.667C1597.536,619.333,1605.87,534.667,1622.135,484.528C1638.399,434.39,1662.596,418.779,1674.694,410.974L1686.792,403.169" id="my-svg-L_VLAB_ALIGN_0" class="edge-thickness-normal edge-pattern-solid edge-thickness-normal edge-pattern-solid flowchart-link" style=";" data-edge="true" data-et="edge" data-id="L_VLAB_ALIGN_0" data-points="W3sieCI6MTU2NC4yMDMxMjUsInkiOjcwNH0seyJ4IjoxNTg5LjIwMzEyNSwieSI6NzA0fSx7IngiOjE2MTQuMjAzMTI1LCJ5Ijo0NTB9LHsieCI6MTY5MC4xNTMxMjUsInkiOjQwMX1d" data-look="classic" marker-end="url(#my-svg_flowchart-v2-pointEnd)"/><path d="M2756.594,350L2760.76,350C2764.927,350,2773.26,350,2781.594,384.333C2789.927,418.667,2798.26,487.333,2805.945,522.499C2813.63,557.664,2820.665,559.329,2824.183,560.161L2827.701,560.993" id="my-svg-L_YPASS_AGG_0" class="edge-thickness-normal edge-pattern-solid edge-thickness-normal edge-pattern-solid flowchart-link" style=";" data-edge="true" data-et="edge" data-id="L_YPASS_AGG_0" data-points="W3sieCI6Mjc1Ni41OTM3NSwieSI6MzUwfSx7IngiOjI3ODEuNTkzNzUsInkiOjM1MH0seyJ4IjoyODA2LjU5Mzc1LCJ5Ijo1NTZ9LHsieCI6MjgzMS41OTM3NSwieSI6NTYxLjkxMzY0NzMwOTE3ODV9XQ==" data-look="classic" marker-end="url(#my-svg_flowchart-v2-pointEnd)"/><path d="M241.506,561L254.255,567.333C267.004,573.667,292.502,586.333,309.418,592.667C326.333,599,334.667,599,343,599C351.333,599,359.667,599,389.667,599C419.667,599,471.333,599,523,599C574.667,599,626.333,599,678,599C729.667,599,781.333,599,833,599C884.667,599,936.333,599,984.785,599C1033.237,599,1078.474,599,1123.711,599C1168.948,599,1214.185,599,1240.97,599C1267.755,599,1276.089,599,1305.654,599C1335.219,599,1386.016,599,1436.813,599C1487.609,599,1538.406,599,1567.971,599C1597.536,599,1605.87,599,1635.87,599C1665.87,599,1717.536,599,1769.203,599C1820.87,599,1872.536,599,1918.581,599C1964.625,599,2005.047,599,2045.469,599C2085.891,599,2126.313,599,2172.357,599C2218.401,599,2270.068,599,2321.734,599C2373.401,599,2425.068,599,2455.068,599C2485.068,599,2493.401,599,2505.587,599C2517.773,599,2533.813,599,2541.832,599L2549.852,599" id="my-svg-L_WS_BUCKET_0" class="edge-thickness-normal edge-pattern-solid edge-thickness-normal edge-pattern-solid flowchart-link" style=";" data-edge="true" data-et="edge" data-id="L_WS_BUCKET_0" data-points="W3sieCI6MjQxLjUwNjQ5MzUwNjQ5MzUsInkiOjU2MX0seyJ4IjozMTgsInkiOjU5OX0seyJ4IjozNDMsInkiOjU5OX0seyJ4IjozNjgsInkiOjU5OX0seyJ4Ijo1MjMsInkiOjU5OX0seyJ4Ijo2NzgsInkiOjU5OX0seyJ4Ijo4MzMsInkiOjU5OX0seyJ4Ijo5ODgsInkiOjU5OX0seyJ4IjoxMTIzLjcxMDkzNzUsInkiOjU5OX0seyJ4IjoxMjU5LjQyMTg3NSwieSI6NTk5fSx7IngiOjEyODQuNDIxODc1LCJ5Ijo1OTl9LHsieCI6MTQzNi44MTI1LCJ5Ijo1OTl9LHsieCI6MTU4OS4yMDMxMjUsInkiOjU5OX0seyJ4IjoxNjE0LjIwMzEyNSwieSI6NTk5fSx7IngiOjE3NjkuMjAzMTI1LCJ5Ijo1OTl9LHsieCI6MTkyNC4yMDMxMjUsInkiOjU5OX0seyJ4IjoyMDQ1LjQ2ODc1LCJ5Ijo1OTl9LHsieCI6MjE2Ni43MzQzNzUsInkiOjU5OX0seyJ4IjoyMzIxLjczNDM3NSwieSI6NTk5fSx7IngiOjI0NzYuNzM0Mzc1LCJ5Ijo1OTl9LHsieCI6MjUwMS43MzQzNzUsInkiOjU5OX0seyJ4IjoyNTUzLjg1MTU2MjUsInkiOjU5OX1d" data-look="classic" marker-end="url(#my-svg_flowchart-v2-pointEnd)"/><path d="M3370.609,589L3374.776,589C3378.943,589,3387.276,589,3395.609,589C3403.943,589,3412.276,589,3420.609,589C3428.943,589,3437.276,589,3444.943,589C3452.609,589,3459.609,589,3463.109,589L3466.609,589" id="my-svg-L_TABLE_PATCH_0" class="edge-thickness-normal edge-pattern-solid edge-thickness-normal edge-pattern-solid flowchart-link" style=";" data-edge="true" data-et="edge" data-id="L_TABLE_PATCH_0" data-points="W3sieCI6MzM3MC42MDkzNzUsInkiOjU4OX0seyJ4IjozMzk1LjYwOTM3NSwieSI6NTg5fSx7IngiOjM0MjAuNjA5Mzc1LCJ5Ijo1ODl9LHsieCI6MzQ0NS42MDkzNzUsInkiOjU4OX0seyJ4IjozNDcwLjYwOTM3NSwieSI6NTg5fV0=" data-look="classic" marker-end="url(#my-svg_flowchart-v2-pointEnd)"/></g><g class="edgeLabels"><g class="edgeLabel"><g class="label" data-id="L_VE_PRJ_0" transform="translate(0, 0)"><foreignObject width="0" height="0"><div xmlns="http://www.w3.org/1999/xhtml" class="labelBkg" style="display: table-cell; white-space: nowrap; line-height: 1.5; max-width: 200px; text-align: center;"><span class="edgeLabel"></span></div></foreignObject></g></g><g class="edgeLabel"><g class="label" data-id="L_PRJ_LLM_0" transform="translate(0, 0)"><foreignObject width="0" height="0"><div xmlns="http://www.w3.org/1999/xhtml" class="labelBkg" style="display: table-cell; white-space: nowrap; line-height: 1.5; max-width: 200px; text-align: center;"><span class="edgeLabel"></span></div></foreignObject></g></g><g class="edgeLabel"><g class="label" data-id="L_LLM_VLAB_0" transform="translate(0, 0)"><foreignObject width="0" height="0"><div xmlns="http://www.w3.org/1999/xhtml" class="labelBkg" style="display: table-cell; white-space: nowrap; line-height: 1.5; max-width: 200px; text-align: center;"><span class="edgeLabel"></span></div></foreignObject></g></g><g class="edgeLabel"><g class="label" data-id="L_PASS_ALIGN_0" transform="translate(0, 0)"><foreignObject width="0" height="0"><div xmlns="http://www.w3.org/1999/xhtml" class="labelBkg" style="display: table-cell; white-space: nowrap; line-height: 1.5; max-width: 200px; text-align: center;"><span class="edgeLabel"></span></div></foreignObject></g></g><g class="edgeLabel"><g class="label" data-id="L_ALIGN_DBLD_0" transform="translate(0, 0)"><foreignObject width="0" height="0"><div xmlns="http://www.w3.org/1999/xhtml" class="labelBkg" style="display: table-cell; white-space: nowrap; line-height: 1.5; max-width: 200px; text-align: center;"><span class="edgeLabel"></span></div></foreignObject></g></g><g class="edgeLabel"><g class="label" data-id="L_DBLD_RET_0" transform="translate(0, 0)"><foreignObject width="0" height="0"><div xmlns="http://www.w3.org/1999/xhtml" class="labelBkg" style="display: table-cell; white-space: nowrap; line-height: 1.5; max-width: 200px; text-align: center;"><span class="edgeLabel"></span></div></foreignObject></g></g><g class="edgeLabel"><g class="label" data-id="L_RET_YPASS_0" transform="translate(0, 0)"><foreignObject width="0" height="0"><div xmlns="http://www.w3.org/1999/xhtml" class="labelBkg" style="display: table-cell; white-space: nowrap; line-height: 1.5; max-width: 200px; text-align: center;"><span class="edgeLabel"></span></div></foreignObject></g></g><g class="edgeLabel"><g class="label" data-id="L_BUCKET_AGG_0" transform="translate(0, 0)"><foreignObject width="0" height="0"><div xmlns="http://www.w3.org/1999/xhtml" class="labelBkg" style="display: table-cell; white-space: nowrap; line-height: 1.5; max-width: 200px; text-align: center;"><span class="edgeLabel"></span></div></foreignObject></g></g><g class="edgeLabel"><g class="label" data-id="L_AGG_TABLE_0" transform="translate(0, 0)"><foreignObject width="0" height="0"><div xmlns="http://www.w3.org/1999/xhtml" class="labelBkg" style="display: table-cell; white-space: nowrap; line-height: 1.5; max-width: 200px; text-align: center;"><span class="edgeLabel"></span></div></foreignObject></g></g><g class="edgeLabel"><g class="label" data-id="L_PATCH_GPT_0" transform="translate(0, 0)"><foreignObject width="0" height="0"><div xmlns="http://www.w3.org/1999/xhtml" class="labelBkg" style="display: table-cell; white-space: nowrap; line-height: 1.5; max-width: 200px; text-align: center;"><span class="edgeLabel"></span></div></foreignObject></g></g><g class="edgeLabel"><g class="label" data-id="L_GPT_OUT_0" transform="translate(0, 0)"><foreignObject width="0" height="0"><div xmlns="http://www.w3.org/1999/xhtml" class="labelBkg" style="display: table-cell; white-space: nowrap; line-height: 1.5; max-width: 200px; text-align: center;"><span class="edgeLabel"></span></div></foreignObject></g></g><g class="edgeLabel"><g class="label" data-id="L_PHY_PASS_0" transform="translate(0, 0)"><foreignObject width="0" height="0"><div xmlns="http://www.w3.org/1999/xhtml" class="labelBkg" style="display: table-cell; white-space: nowrap; line-height: 1.5; max-width: 200px; text-align: center;"><span class="edgeLabel"></span></div></foreignObject></g></g><g class="edgeLabel"><g class="label" data-id="L_POS_ALIGN_0" transform="translate(0, 0)"><foreignObject width="0" height="0"><div xmlns="http://www.w3.org/1999/xhtml" class="labelBkg" style="display: table-cell; white-space: nowrap; line-height: 1.5; max-width: 200px; text-align: center;"><span class="edgeLabel"></span></div></foreignObject></g></g><g class="edgeLabel"><g class="label" data-id="L_GW_ALIGN_0" transform="translate(0, 0)"><foreignObject width="0" height="0"><div xmlns="http://www.w3.org/1999/xhtml" class="labelBkg" style="display: table-cell; white-space: nowrap; line-height: 1.5; max-width: 200px; text-align: center;"><span class="edgeLabel"></span></div></foreignObject></g></g><g class="edgeLabel"><g class="label" data-id="L_WS_ALIGN_0" transform="translate(0, 0)"><foreignObject width="0" height="0"><div xmlns="http://www.w3.org/1999/xhtml" class="labelBkg" style="display: table-cell; white-space: nowrap; line-height: 1.5; max-width: 200px; text-align: center;"><span class="edgeLabel"></span></div></foreignObject></g></g><g class="edgeLabel"><g class="label" data-id="L_IMG_VE_0" transform="translate(0, 0)"><foreignObject width="0" height="0"><div xmlns="http://www.w3.org/1999/xhtml" class="labelBkg" style="display: table-cell; white-space: nowrap; line-height: 1.5; max-width: 200px; text-align: center;"><span class="edgeLabel"></span></div></foreignObject></g></g><g class="edgeLabel"><g class="label" data-id="L_VLAB_ALIGN_0" transform="translate(0, 0)"><foreignObject width="0" height="0"><div xmlns="http://www.w3.org/1999/xhtml" class="labelBkg" style="display: table-cell; white-space: nowrap; line-height: 1.5; max-width: 200px; text-align: center;"><span class="edgeLabel"></span></div></foreignObject></g></g><g class="edgeLabel"><g class="label" data-id="L_YPASS_AGG_0" transform="translate(0, 0)"><foreignObject width="0" height="0"><div xmlns="http://www.w3.org/1999/xhtml" class="labelBkg" style="display: table-cell; white-space: nowrap; line-height: 1.5; max-width: 200px; text-align: center;"><span class="edgeLabel"></span></div></foreignObject></g></g><g class="edgeLabel"><g class="label" data-id="L_WS_BUCKET_0" transform="translate(0, 0)"><foreignObject width="0" height="0"><div xmlns="http://www.w3.org/1999/xhtml" class="labelBkg" style="display: table-cell; white-space: nowrap; line-height: 1.5; max-width: 200px; text-align: center;"><span class="edgeLabel"></span></div></foreignObject></g></g><g class="edgeLabel"><g class="label" data-id="L_TABLE_PATCH_0" transform="translate(0, 0)"><foreignObject width="0" height="0"><div xmlns="http://www.w3.org/1999/xhtml" class="labelBkg" style="display: table-cell; white-space: nowrap; line-height: 1.5; max-width: 200px; text-align: center;"><span class="edgeLabel"></span></div></foreignObject></g></g></g><g class="nodes"><g class="node default" id="my-svg-flowchart-PHY-0" data-look="classic" transform="translate(163, 82)"><rect class="basic label-container" style="" x="-108.6796875" y="-39" width="217.359375" height="78"/><g class="label" style="" transform="translate(-78.6796875, -24)"><rect/><foreignObject width="157.359375" height="48"><div xmlns="http://www.w3.org/1999/xhtml" style="display: table-cell; white-space: nowrap; line-height: 1.5; max-width: 200px; text-align: center;"><span class="nodeLabel"><p>Satellite link telemetry<br />phyRssi, rssi, snr, CNI</p></span></div></foreignObject></g></g><g class="node default" id="my-svg-flowchart-POS-1" data-look="classic" transform="translate(163, 210)"><rect class="basic label-container" style="" x="-118.9375" y="-39" width="237.875" height="78"/><g class="label" style="" transform="translate(-88.9375, -24)"><rect/><foreignObject width="177.875" height="48"><div xmlns="http://www.w3.org/1999/xhtml" style="display: table-cell; white-space: nowrap; line-height: 1.5; max-width: 200px; text-align: center;"><span class="nodeLabel"><p>Satellite/terminal position<br />lon, lat, altitude</p></span></div></foreignObject></g></g><g class="node default" id="my-svg-flowchart-GW-2" data-look="classic" transform="translate(163, 350)"><rect class="basic label-container" style="" x="-130" y="-51" width="260" height="102"/><g class="label" style="" transform="translate(-100, -36)"><rect/><foreignObject width="200" height="72"><div xmlns="http://www.w3.org/1999/xhtml" style="display: table; white-space: break-spaces; line-height: 1.5; max-width: 200px; text-align: center; width: 200px;"><span class="nodeLabel"><p>Ground weather<br />temperature, humidity, pressure</p></span></div></foreignObject></g></g><g class="node default" id="my-svg-flowchart-WS-3" data-look="classic" transform="translate(163, 522)"><rect class="basic label-container" style="" x="-122.0390625" y="-39" width="244.078125" height="78"/><g class="label" style="" transform="translate(-92.0390625, -24)"><rect/><foreignObject width="184.078125" height="48"><div xmlns="http://www.w3.org/1999/xhtml" style="display: table-cell; white-space: nowrap; line-height: 1.5; max-width: 200px; text-align: center;"><span class="nodeLabel"><p>Weather station<br />rainfall, cumulative rainfall</p></span></div></foreignObject></g></g><g class="node default" id="my-svg-flowchart-IMG-4" data-look="classic" transform="translate(163, 704)"><rect class="basic label-container" style="" x="-86.46875" y="-27" width="172.9375" height="54"/><g class="label" style="" transform="translate(-56.46875, -12)"><rect/><foreignObject width="112.9375" height="24"><div xmlns="http://www.w3.org/1999/xhtml" style="display: table-cell; white-space: nowrap; line-height: 1.5; max-width: 200px; text-align: center;"><span class="nodeLabel"><p>Camera images</p></span></div></foreignObject></g></g><g class="node default" id="my-svg-flowchart-VE-5" data-look="classic" transform="translate(523, 704)"><rect class="basic label-container" style="" x="-130" y="-39" width="260" height="78"/><g class="label" style="" transform="translate(-100, -24)"><rect/><foreignObject width="200" height="48"><div xmlns="http://www.w3.org/1999/xhtml" style="display: table; white-space: break-spaces; line-height: 1.5; max-width: 200px; text-align: center; width: 200px;"><span class="nodeLabel"><p>Frozen weather vision encoder</p></span></div></foreignObject></g></g><g class="node default" id="my-svg-flowchart-PRJ-6" data-look="classic" transform="translate(833, 704)"><rect class="basic label-container" style="" x="-130" y="-39" width="260" height="78"/><g class="label" style="" transform="translate(-100, -24)"><rect/><foreignObject width="200" height="48"><div xmlns="http://www.w3.org/1999/xhtml" style="display: table; white-space: break-spaces; line-height: 1.5; max-width: 200px; text-align: center; width: 200px;"><span class="nodeLabel"><p>Trainable soft-token projector</p></span></div></foreignObject></g></g><g class="node default" id="my-svg-flowchart-LLM-7" data-look="classic" transform="translate(1123.7109375, 704)"><rect class="basic label-container" style="" x="-110.7109375" y="-27" width="221.421875" height="54"/><g class="label" style="" transform="translate(-80.7109375, -12)"><rect/><foreignObject width="161.421875" height="24"><div xmlns="http://www.w3.org/1999/xhtml" style="display: table-cell; white-space: nowrap; line-height: 1.5; max-width: 200px; text-align: center;"><span class="nodeLabel"><p>Qwen + weather LoRA</p></span></div></foreignObject></g></g><g class="node default" id="my-svg-flowchart-VLAB-8" data-look="classic" transform="translate(1436.8125, 704)"><rect class="basic label-container" style="" x="-127.390625" y="-39" width="254.78125" height="78"/><g class="label" style="" transform="translate(-97.390625, -24)"><rect/><foreignObject width="194.78125" height="48"><div xmlns="http://www.w3.org/1999/xhtml" style="display: table-cell; white-space: nowrap; line-height: 1.5; max-width: 200px; text-align: center;"><span class="nodeLabel"><p>image weather probabilities<br />sunny/cloudy/rain</p></span></div></foreignObject></g></g><g class="node default" id="my-svg-flowchart-PASS-13" data-look="classic" transform="translate(1436.8125, 82)"><rect class="basic label-container" style="" x="-120.9453125" y="-39" width="241.890625" height="78"/><g class="label" style="" transform="translate(-90.9453125, -24)"><rect/><foreignObject width="181.890625" height="48"><div xmlns="http://www.w3.org/1999/xhtml" style="display: table-cell; white-space: nowrap; line-height: 1.5; max-width: 200px; text-align: center;"><span class="nodeLabel"><p>Pass segmentation<br />same satellite, gap &lt; 60 s</p></span></div></foreignObject></g></g><g class="node default" id="my-svg-flowchart-ALIGN-14" data-look="classic" transform="translate(1769.203125, 350)"><rect class="basic label-container" style="" x="-130" y="-51" width="260" height="102"/><g class="label" style="" transform="translate(-100, -36)"><rect/><foreignObject width="200" height="72"><div xmlns="http://www.w3.org/1999/xhtml" style="display: table; white-space: break-spaces; line-height: 1.5; max-width: 200px; text-align: center; width: 200px;"><span class="nodeLabel"><p>Timestamp alignment<br />position 5 s, weather 60 s, image 10 min</p></span></div></foreignObject></g></g><g class="node default" id="my-svg-flowchart-DBLD-15" data-look="classic" transform="translate(2045.46875, 350)"><rect class="basic label-container" style="" x="-96.265625" y="-39" width="192.53125" height="78"/><g class="label" style="" transform="translate(-66.265625, -24)"><rect/><foreignObject width="132.53125" height="48"><div xmlns="http://www.w3.org/1999/xhtml" style="display: table-cell; white-space: nowrap; line-height: 1.5; max-width: 200px; text-align: center;"><span class="nodeLabel"><p>Pass dataset NPZ<br />irregular sequence</p></span></div></foreignObject></g></g><g class="node default" id="my-svg-flowchart-RET-16" data-look="classic" transform="translate(2321.734375, 350)"><rect class="basic label-container" style="" x="-130" y="-39" width="260" height="78"/><g class="label" style="" transform="translate(-100, -24)"><rect/><foreignObject width="200" height="48"><div xmlns="http://www.w3.org/1999/xhtml" style="display: table; white-space: break-spaces; line-height: 1.5; max-width: 200px; text-align: center; width: 200px;"><span class="nodeLabel"><p>Patch Encoder-Decoder Transformer</p></span></div></foreignObject></g></g><g class="node default" id="my-svg-flowchart-YPASS-17" data-look="classic" transform="translate(2641.6640625, 350)"><rect class="basic label-container" style="" x="-114.9296875" y="-39" width="229.859375" height="78"/><g class="label" style="" transform="translate(-84.9296875, -24)"><rect/><foreignObject width="169.859375" height="48"><div xmlns="http://www.w3.org/1999/xhtml" style="display: table-cell; white-space: nowrap; line-height: 1.5; max-width: 200px; text-align: center;"><span class="nodeLabel"><p>pass_rainfall_mm<br />rain_rate aux, rain class</p></span></div></foreignObject></g></g><g class="node default" id="my-svg-flowchart-BUCKET-23" data-look="classic" transform="translate(2641.6640625, 599)"><rect class="basic label-container" style="" x="-87.8125" y="-39" width="175.625" height="78"/><g class="label" style="" transform="translate(-57.8125, -24)"><rect/><foreignObject width="115.625" height="48"><div xmlns="http://www.w3.org/1999/xhtml" style="display: table-cell; white-space: nowrap; line-height: 1.5; max-width: 200px; text-align: center;"><span class="nodeLabel"><p>Regular buckets<br />e.g. 10 min</p></span></div></foreignObject></g></g><g class="node default" id="my-svg-flowchart-AGG-24" data-look="classic" transform="translate(2946.1015625, 589)"><rect class="basic label-container" style="" x="-114.5078125" y="-39" width="229.015625" height="78"/><g class="label" style="" transform="translate(-84.5078125, -24)"><rect/><foreignObject width="169.015625" height="48"><div xmlns="http://www.w3.org/1999/xhtml" style="display: table-cell; white-space: nowrap; line-height: 1.5; max-width: 200px; text-align: center;"><span class="nodeLabel"><p>Aggregate pass outputs<br />sum/mean/max/count</p></span></div></foreignObject></g></g><g class="node default" id="my-svg-flowchart-TABLE-25" data-look="classic" transform="translate(3240.609375, 589)"><rect class="basic label-container" style="" x="-130" y="-51" width="260" height="102"/><g class="label" style="" transform="translate(-100, -36)"><rect/><foreignObject width="200" height="72"><div xmlns="http://www.w3.org/1999/xhtml" style="display: table; white-space: break-spaces; line-height: 1.5; max-width: 200px; text-align: center; width: 200px;"><span class="nodeLabel"><p>Stage2 weather table<br />date, weather, stage1 features, target</p></span></div></foreignObject></g></g><g class="node default" id="my-svg-flowchart-PATCH-29" data-look="classic" transform="translate(3574.5625, 589)"><rect class="basic label-container" style="" x="-103.953125" y="-27" width="207.90625" height="54"/><g class="label" style="" transform="translate(-73.953125, -12)"><rect/><foreignObject width="147.90625" height="24"><div xmlns="http://www.w3.org/1999/xhtml" style="display: table-cell; white-space: nowrap; line-height: 1.5; max-width: 200px; text-align: center;"><span class="nodeLabel"><p>Time-series patching</p></span></div></foreignObject></g></g><g class="node default" id="my-svg-flowchart-GPT-30" data-look="classic" transform="translate(3858.515625, 589)"><rect class="basic label-container" style="" x="-130" y="-39" width="260" height="78"/><g class="label" style="" transform="translate(-100, -24)"><rect/><foreignObject width="200" height="48"><div xmlns="http://www.w3.org/1999/xhtml" style="display: table; white-space: break-spaces; line-height: 1.5; max-width: 200px; text-align: center; width: 200px;"><span class="nodeLabel"><p>Frozen/partially frozen GPT-2 blocks</p></span></div></foreignObject></g></g><g class="node default" id="my-svg-flowchart-OUT-31" data-look="classic" transform="translate(4148.109375, 589)"><rect class="basic label-container" style="" x="-109.59375" y="-27" width="219.1875" height="54"/><g class="label" style="" transform="translate(-79.59375, -12)"><rect/><foreignObject width="159.1875" height="24"><div xmlns="http://www.w3.org/1999/xhtml" style="display: table-cell; white-space: nowrap; line-height: 1.5; max-width: 200px; text-align: center;"><span class="nodeLabel"><p>Future rainfall forecast</p></span></div></foreignObject></g></g></g></g></g><defs><filter id="my-svg-drop-shadow" height="130%" width="130%"><feDropShadow dx="4" dy="4" stdDeviation="0" flood-opacity="0.06" flood-color="#000000"/></filter></defs><defs><filter id="my-svg-drop-shadow-small" height="150%" width="150%"><feDropShadow dx="2" dy="2" stdDeviation="0" flood-opacity="0.06" flood-color="#000000"/></filter></defs><linearGradient id="my-svg-gradient" gradientUnits="objectBoundingBox" x1="0%" y1="0%" x2="100%" y2="0%"><stop offset="0%" stop-color="#3b6ea8" stop-opacity="1"/><stop offset="100%" stop-color="hsl(120, 0%, 86.0784313725%)" stop-opacity="1"/></linearGradient></svg>